<svg width="641" height="142" viewBox="0 0 641 142" fill="none" xmlns="http://www.w3.org/2000/svg">
<path d="M211.3 41.2C205.7 16.4 184.4 0 160.3 0H123.3C116.2 0 110.8 4.49999 109 10.9L74.1001 141L98.8001 140.9C105.6 140.9 111.1 136.4 113 130.2L138.8 34.5H158.6C167 34.5 174.8 40.1 176.9 49.3C179.4 60.2 171 71.9 158.6 71.9H148.3C141.3 71.9 135.8 76.5 134 82.7L127.6 106.5H159.6C196.8 106.5 217.9 70.3 211.3 41.2ZM54.8001 69.2H73.4001C80.3001 69.2 85.8001 64.8 87.7001 58.3L93.9001 34.7H53.9001C31.0001 34.7 10.0001 48.8 2.70009 75.8C-5.99991 109.6 19.5001 141 53.0001 141H65.4001L72.5001 114.9C73.7001 110.5 70.3001 106.6 66.1001 106.6H54.8001C30.1001 106.6 29.9001 69.2 54.8001 69.2ZM302.3 34.4H224.4L220.9 47.8C218.5 57.4 225.4 66.3 235.1 66.3H292.6C296.6 66.3 295 70.6 294.7 71.6L286.1 103.4C285.7 104.8 285.2 108.7 280.6 108.7H245.7C240.4 108.7 240.4 100.8 245.7 100.8H267.3C274.1 100.8 279.6 96.2 281.5 90L285 76.8H236.6C197.4 76.8 193 140.6 235.9 140.6L293.4 140.8C304.6 140.8 314 133.6 316.8 123L330.8 71.2C335.6 52 321.1 34.4 302.3 34.4ZM634.1 0H615.2C610.3 0 606 3.19999 604.8 7.89999L569.2 141C589.9 141 609 127.2 614.1 106.5L640.6 8.3C641.8 4 638.6 0 634.1 0ZM397.8 34.7V34.8H349.5L323.3 132.8C322.1 137.2 325.5 141.1 329.7 141.1H348.6C353.4 141.1 357.8 138.1 359 133.3L376.2 69.3H396C408.5 69.3 417.4 81.1 414.1 92.7L403.5 132.7C402.3 137 405.4 141 409.9 141H429C433.6 141 438.1 138.1 439.3 133.2L448.1 100.1C457.1 67 432.2 34.7 397.8 34.7ZM496.1 109.3C492.5 109.3 490.1 105.9 491 102.6L499 72.6C499.9 68.7 502.7 66.6 506.8 66.6H539.7C542.3 66.6 544.3 69 543.6 71.7L542.9 74.3C542.3 76.3 541 77.3 539 77.3H517.4C510.4 77.3 504.8 81.9 503.2 88.1L499.7 101.1H553.1C563.6 101.1 573.4 94.5 576.3 83.5L579.5 71.5C584.4 52.4 570.2 34.7 551.2 34.7H503.9C486 34.7 470.1 46.7 465.3 64.3L454.5 104.3C449.5 122 462.8 141 482.8 141H549.5C556.3 141 561.8 136.5 563.7 130.3L569.4 109.3H496.1Z" fill="black"/>
</svg>
