<svg width="640" height="213" viewBox="0 0 640 213" fill="none" xmlns="http://www.w3.org/2000/svg">
<path d="M144.5 200L182.8 200.8C169.6 196.2 156.8 190.6 144.5 184V200ZM202.2 194.7V200L182.8 200.8C219.3 213.3 252.7 215 277.5 208C257.6 208.2 231.7 205.4 202.2 194.7ZM611.1 79.5C627 79.5 640 66.6 640 50.6C640 34.6 627.1 26.1 611.1 26.1C595.2 26.1 582.2 34.7 582.2 50.6C582.2 66.5 595.1 79.5 611.1 79.5ZM582.1 200H640V89.5H582.1V200ZM508.4 200H566.3V4.70002L508.4 32V200ZM477.4 80.6C459.2 62.4 427 63.5 427 63.5C427 63.5 394.7 62.4 376.6 80.6C358.4 98.8 359.8 114.5 359.8 133.2C359.8 151.9 358.4 167.5 376.6 185.7C394.8 203.9 427 202.8 427 202.8C427 202.8 459.3 203.9 477.4 185.7C495.6 167.5 494.2 151.9 494.2 133.2C494.1 114.4 495.5 98.7 477.4 80.6ZM437.6 152.5C437.6 156.1 435.8 165 426.9 165C418 165 416.2 156.1 416.2 152.5V112.1C416.2 103.4 423.5 101.2 426.9 101.2C430.3 101.2 437.6 103.3 437.6 112.1V152.5ZM331.4 80.6C313.2 62.4 281 63.5 281 63.5C281 63.5 248.8 62.4 230.6 80.6C228.7 82.5 226.9 84.5 225.3 86.6C187.1 57 152.8 40.1 123.2 25.5V4.80002L100.7 15.4C46.2998 -6.69999 11.6998 -2.79998 3.39976 15.5C3.39976 15.5 -21.5002 48.3 65.1998 126.3V200H123.1V171.4C116.6 167.2 110.1 162.7 103.7 157.8C88.8998 146.6 76.2998 136.2 65.2998 126.4V95.4C78.3998 110.1 95.7998 126.8 118.7 145.7L123.2 149.3V119.5C123.2 112.6 124.9 101.3 134 101.3C143.1 101.3 144.6 108.2 144.6 116.3V165C162.6 177.2 181.9 187.1 202.3 194.6V100.7C202.3 82 188.9 63.3 161.7 63.3C145.9 63.2 131.2 71.5 123.2 85.2V30.9C165.1 51.8 207.1 77.4 223.1 89.2C212.9 103.8 213.8 117.3 213.8 132.9C213.8 151.6 212.4 167.2 230.6 185.4C248.8 203.6 281 202.5 281 202.5C281 202.5 313.3 203.6 331.4 185.4C349.6 167.2 348.1 151.6 348.1 132.9C348.1 114.4 349.6 98.7 331.4 80.6V80.6ZM65.1998 32V95.3C16.4998 40.8 26.2998 19.3 29.9998 16.2C43.4998 4.80002 67.4998 8.20002 94.3998 18.3L65.1998 32ZM291.7 152.5C291.7 156.1 289.9 165 281 165C272.1 165 270.3 156.1 270.3 152.5V112.1C270.3 103.4 277.6 101.2 281 101.2C284.4 101.2 291.7 103.3 291.7 112.1V152.5Z" fill="black"/>
</svg>
