<svg xmlns="http://www.w3.org/2000/svg" width="162" height="36" viewBox="0 0 162 36">
    <defs>
        <linearGradient id="49jvubh07a" x1="2.305%" x2="100%" y1="20.798%" y2="77.026%">
            <stop offset="0%" stop-color="#50A1E6"/>
            <stop offset="100%" stop-color="#0746EB"/>
        </linearGradient>
    </defs>
    <g fill="none" fill-rule="evenodd">
        <g fill-rule="nonzero">
            <g>
                <path fill="url(#49jvubh07a)" d="M54.78 17c1.509 6.304-3.195 12.514-9.71 12.796-1.155.05-2.314.022-3.471.023-7.402.001-14.804.02-22.205-.02-1.157-.006-2.087.298-2.993.998-2.187 1.69-4.428 3.312-6.65 4.959-.275.204-1.25.431.088-1.585 1.1-2.055 2.828-4.382.834-4.36-1.536-.002-2.993-.128-4.452-.837-4.192-2.036-6.636-6.187-6.163-10.83.247-2.428 1.622-4.926 3.564-6.803.273-.251 2.385-2.117 5.686-2.858 3.506-.787 8.355-.296 13.121 3.294 0 0-.94-2.915-6.273-4.774 5.295-8.026 16.493-8.66 23.064-1.218.71.805 1.283 1.743 1.84 2.666.336.558.644.735 1.339.61 5.775-1.038 11.048 2.366 12.381 7.938zm-2.06 3.348c.32 0 .595-.24.629-.563.383-3.657-1.553-7.897-6.708-8.57-.345-.043-.663.198-.709.541-.045.344.198.66.544.704 4.341.566 5.949 4.021 5.616 7.195-.036.345.216.653.563.689.022.002.044.004.066.004z" transform="translate(-405 -17) translate(405 17)"/>
                <g fill="#1650FF">
                    <path d="M23.983 6.894v2.257h.093c.557-.94 1.279-1.624 2.166-2.053.887-.428 1.795-.643 2.723-.643 1.176 0 2.14.162 2.893.486.753.324 1.346.774 1.78 1.348.433.575.738 1.275.913 2.1.174.826.262 1.74.262 2.743v9.97H30.42v-9.155c0-1.337-.207-2.335-.619-2.993-.413-.659-1.145-.988-2.197-.988-1.197 0-2.064.36-2.6 1.082-.537.72-.804 1.907-.804 3.558V23.1h-4.393V6.894h4.176zM46.846 23.101v-2.257h-.093c-.557.94-1.28 1.62-2.166 2.038-.887.418-1.796.627-2.723.627-1.177 0-2.14-.157-2.894-.47-.753-.314-1.345-.758-1.78-1.333-.432-.575-.737-1.275-.912-2.1-.175-.826-.263-1.74-.263-2.744V6.894h4.395v9.154c0 1.338.205 2.335.618 2.993.413.659 1.145.988 2.197.988 1.197 0 2.063-.361 2.6-1.082.536-.721.804-1.907.804-3.558V6.894h4.394v16.207h-4.177zM56.586.719v8.15h.062c.536-.835 1.263-1.447 2.181-1.834.918-.386 1.872-.58 2.863-.58.804 0 1.598.168 2.383.502.784.334 1.49.846 2.12 1.536.628.69 1.14 1.572 1.531 2.649.392 1.076.588 2.356.588 3.84s-.196 2.764-.588 3.84c-.392 1.077-.902 1.96-1.531 2.65-.63.69-1.337 1.201-2.12 1.535-.785.335-1.578.502-2.383.502-1.177 0-2.228-.188-3.157-.564-.928-.376-1.63-1.013-2.104-1.912h-.062v2.07H52.19V.718h4.395zm7.117 12.32c-.144-.627-.371-1.181-.68-1.662-.31-.48-.697-.862-1.16-1.144-.465-.282-1.027-.423-1.687-.423-.64 0-1.197.14-1.67.423-.476.282-.867.664-1.177 1.144-.31.481-.537 1.035-.68 1.661-.146.627-.218 1.286-.218 1.975 0 .67.072 1.317.217 1.944.144.627.371 1.181.68 1.661.31.481.702.862 1.177 1.145.474.282 1.031.423 1.671.423.66 0 1.222-.141 1.687-.423.464-.283.85-.664 1.16-1.145.309-.48.537-1.034.68-1.661.144-.627.217-1.275.217-1.944 0-.69-.073-1.348-.217-1.975zM74.638 19.214c.66.648 1.609.972 2.847.972.886 0 1.65-.225 2.29-.674.64-.45 1.03-.925 1.176-1.426h3.868c-.619 1.943-1.568 3.333-2.847 4.169-1.28.836-2.827 1.254-4.642 1.254-1.258 0-2.393-.204-3.404-.611-1.011-.408-1.867-.988-2.569-1.74-.701-.752-1.243-1.65-1.624-2.696-.382-1.045-.573-2.195-.573-3.448 0-1.212.196-2.34.588-3.386.392-1.045.949-1.949 1.672-2.712.721-.762 1.583-1.364 2.583-1.803 1-.438 2.11-.658 3.326-.658 1.363 0 2.548.267 3.559.8 1.01.533 1.842 1.249 2.491 2.147.65.899 1.12 1.923 1.408 3.072.289 1.15.391 2.351.31 3.605H73.553c.063 1.442.423 2.487 1.084 3.135zm4.966-8.526c-.526-.585-1.326-.878-2.398-.878-.701 0-1.284.12-1.748.36-.465.24-.836.538-1.115.894-.278.355-.474.731-.588 1.128-.113.397-.18.752-.2 1.066h7.148c-.206-1.129-.572-1.985-1.099-2.57zM5.256 17.584c.267.523.623.946 1.067 1.27.444.323.964.563 1.563.72.598.157 1.217.236 1.857.236.433 0 .897-.037 1.392-.11.496-.073.96-.214 1.393-.423.433-.21.794-.497 1.083-.862.288-.366.433-.831.433-1.395 0-.606-.191-1.098-.573-1.474-.382-.376-.882-.69-1.5-.94-.62-.25-1.321-.47-2.105-.658-.784-.189-1.578-.397-2.383-.627-.825-.209-1.63-.465-2.414-.768-.784-.303-1.485-.695-2.104-1.176-.619-.48-1.12-1.081-1.5-1.803C1.081 8.854.89 7.981.89 6.957c0-1.15.243-2.148.727-2.994.485-.846 1.12-1.551 1.904-2.116.784-.564 1.671-.982 2.66-1.254C7.174.322 8.164.185 9.155.185c1.155 0 2.264.131 3.326.392 1.062.262 2.006.685 2.831 1.27.825.585 1.48 1.332 1.965 2.241.485.91.728 2.012.728 3.308H13.3c-.041-.669-.18-1.223-.417-1.662-.238-.439-.553-.783-.945-1.034-.392-.251-.84-.428-1.345-.533-.506-.104-1.058-.157-1.656-.157-.392 0-.785.042-1.176.125-.392.084-.748.23-1.068.44-.32.208-.583.47-.789.783-.207.313-.31.71-.31 1.191 0 .439.083.794.248 1.066.165.272.49.523.975.752.484.23 1.155.46 2.012.69.856.23 1.975.522 3.357.878.413.083.985.235 1.718.454.732.22 1.46.57 2.181 1.05.723.481 1.347 1.124 1.873 1.928.526.805.789 1.834.789 3.088 0 1.024-.196 1.975-.588 2.853-.393.877-.975 1.635-1.749 2.273-.773.637-1.732 1.133-2.878 1.489-1.145.355-2.47.532-3.976.532-1.218 0-2.398-.152-3.543-.454-1.145-.303-2.156-.778-3.033-1.427-.877-.647-1.574-1.472-2.09-2.476C.376 18.24.128 17.05.149 15.67h4.704c.001.753.135 1.39.404 1.913zM90.75 19.073c.197.345.45.627.76.846.309.22.665.382 1.067.486.403.105.82.157 1.253.157.31 0 .635-.036.975-.11.34-.073.65-.188.928-.344.279-.158.51-.366.697-.627.185-.261.278-.59.278-.988 0-.669-.438-1.17-1.315-1.504-.877-.335-2.1-.67-3.667-1.004-.64-.146-1.264-.318-1.872-.517-.608-.198-1.15-.46-1.624-.784-.475-.324-.857-.731-1.145-1.222-.29-.491-.433-1.093-.433-1.803 0-1.045.2-1.902.603-2.57.402-.67.933-1.197 1.594-1.584.66-.387 1.402-.658 2.228-.815.825-.157 1.671-.235 2.537-.235.866 0 1.707.084 2.522.25.815.168 1.542.45 2.182.847.64.397 1.17.925 1.594 1.583.422.659.675 1.49.758 2.492h-4.178c-.062-.856-.382-1.436-.96-1.74-.577-.302-1.258-.454-2.042-.454-.247 0-.515.016-.804.047-.289.031-.552.1-.789.204-.237.105-.439.256-.603.454-.165.2-.248.466-.248.8 0 .397.144.72.433.971.289.251.666.455 1.13.612.464.156.995.298 1.594.423.598.125 1.207.261 1.825.408.64.146 1.264.324 1.873.532.608.21 1.15.486 1.625.831.474.345.855.774 1.144 1.286.29.512.433 1.144.433 1.896 0 1.066-.211 1.96-.634 2.68-.423.722-.975 1.301-1.657 1.74-.68.44-1.46.748-2.336.925-.876.177-1.77.266-2.677.266-.928 0-1.836-.094-2.723-.282-.887-.188-1.676-.501-2.367-.94-.691-.439-1.258-1.019-1.702-1.74-.444-.721-.686-1.625-.727-2.712h4.178c-.001.482.097.894.293 1.239z" transform="translate(-405 -17) translate(405 17) translate(59.851 6.558)"/>
                </g>
            </g>
        </g>
    </g>
</svg>
