<svg xmlns="http://www.w3.org/2000/svg" width="162" height="36" viewBox="0 0 162 36">
    <defs>
        <linearGradient id="49jvubh07a" x1="2.305%" x2="100%" y1="20.798%" y2="77.026%">
            <stop offset="0%" stop-color="#50A1E6"/>
            <stop offset="100%" stop-color="#0746EB"/>
        </linearGradient>
    </defs>
    <g fill="none" fill-rule="evenodd">
        <g fill-rule="nonzero">
            <g>
                <path fill="url(#49jvubh07a)" d="M54.78 17c1.509 6.304-3.195 12.514-9.71 12.796-1.155.05-2.314.022-3.471.023-7.402.001-14.804.02-22.205-.02-1.157-.006-2.087.298-2.993.998-2.187 1.69-4.428 3.312-6.65 4.959-.275.204-1.25.431.088-1.585 1.1-2.055 2.828-4.382.834-4.36-1.536-.002-2.993-.128-4.452-.837-4.192-2.036-6.636-6.187-6.163-10.83.247-2.428 1.622-4.926 3.564-6.803.273-.251 2.385-2.117 5.686-2.858 3.506-.787 8.355-.296 13.121 3.294 0 0-.94-2.915-6.273-4.774 5.295-8.026 16.493-8.66 23.064-1.218.71.805 1.283 1.743 1.84 2.666.336.558.644.735 1.339.61 5.775-1.038 11.048 2.366 12.381 7.938zm-2.06 3.348c.32 0 .595-.24.629-.563.383-3.657-1.553-7.897-6.708-8.57-.345-.043-.663.198-.709.541-.045.344.198.66.544.704 4.341.566 5.949 4.021 5.616 7.195-.036.345.216.653.563.689.022.002.044.004.066.004z" transform="translate(-405 -17) translate(405 17)"/>
            </g>
        </g>
    </g>
</svg>
